# xmcd
#
# Track frame offsets: 
#        150
#        21145
#        47835
#        70175
#        84655
#        98775
#        114835
#        129550
#        143875
#        175690
#        188570
#        206765
#        225315
#        239140
#        263250
#        275605
#        286305
#        301775
#        315050
#
# Disc length: 4614 seconds
#
# Revision: 0
# Processed by: cddbd v1.5.1PL2 Copyright (c) Steve Scherf et al.
# Submitted via: ExactAudioCopy v0.95b4
#
DISCID=f9120413
DTITLE=Rod Piazza and the Mighty Flyers - Radioactive Material - File 
DTITLE=Under Rock CD Reissue
DYEAR=1980
DGENRE=Blues
TTITLE0=Tell Me Mama
TTITLE1=Help Me
TTITLE2=Talk To Your Daughter
TTITLE3=Just A Feeling
TTITLE4=Shot From the Saddle
TTITLE5=She's Tough
TTITLE6=Mellow Down Easy
TTITLE7=It Ain't Right
TTITLE8=Five Long Years
TTITLE9=Too Young To Have Fun
TTITLE10=Take Out Some Insurance
TTITLE11=Stranded In The Jungle
TTITLE12=Spin and Win
TTITLE13=Texas Twister
TTITLE14=Strange Looks
TTITLE15=Boogie Woogie Teenage Girl
TTITLE16=It Wasn't Me
TTITLE17=Cry Cry Baby
TTITLE18=Waitin' On You Baby
EXTD=
EXTT0=
EXTT1=
EXTT2=
EXTT3=
EXTT4=
EXTT5=
EXTT6=
EXTT7=
EXTT8=
EXTT9=
EXTT10=
EXTT11=
EXTT12=
EXTT13=
EXTT14=
EXTT15=
EXTT16=
EXTT17=
EXTT18=
PLAYORDER=
